<mxfile host="app.diagrams.net" modified="2022-02-23T07:41:14.170Z" agent="5.0 (Windows NT 6.1; WOW64) AppleWebKit/537.36 (KHTML, like Gecko) Chrome/86.0.4240.198 Safari/537.36" etag="_jWpHUBi6gusfeYXghEM" version="15.8.3" type="github">
  <diagram name="Page-1" id="97916047-d0de-89f5-080d-49f4d83e522f">
    <mxGraphModel dx="1422" dy="784" grid="1" gridSize="10" guides="1" tooltips="1" connect="1" arrows="1" fold="1" page="1" pageScale="1.5" pageWidth="1169" pageHeight="827" background="none" math="0" shadow="0">
      <root>
        <mxCell id="0" />
        <mxCell id="1" parent="0" />
        <mxCell id="9yprz6wRxJ_ttCHADu7k-56" style="edgeStyle=elbowEdgeStyle;rounded=0;orthogonalLoop=1;jettySize=auto;html=1;exitX=0.5;exitY=1;exitDx=0;exitDy=0;entryX=0.5;entryY=0;entryDx=0;entryDy=0;fontSize=14;elbow=vertical;strokeWidth=2;" edge="1" parent="1" source="7" target="9yprz6wRxJ_ttCHADu7k-55">
          <mxGeometry relative="1" as="geometry" />
        </mxCell>
        <mxCell id="7" value="开始" style="rounded=1;shadow=1;fontStyle=1;fontSize=14;" parent="1" vertex="1">
          <mxGeometry x="372.5" y="130" width="110" height="40" as="geometry" />
        </mxCell>
        <mxCell id="9yprz6wRxJ_ttCHADu7k-58" style="edgeStyle=elbowEdgeStyle;rounded=0;orthogonalLoop=1;jettySize=auto;elbow=vertical;html=1;exitX=0.5;exitY=1;exitDx=0;exitDy=0;entryX=0.5;entryY=0;entryDx=0;entryDy=0;fontSize=14;strokeWidth=2;" edge="1" parent="1" source="9yprz6wRxJ_ttCHADu7k-55" target="9yprz6wRxJ_ttCHADu7k-57">
          <mxGeometry relative="1" as="geometry" />
        </mxCell>
        <mxCell id="9yprz6wRxJ_ttCHADu7k-55" value="&lt;font style=&quot;font-size: 14px&quot;&gt;&lt;b&gt;安装can卡、安装驱动并&lt;br&gt;执行软件配置文件&lt;/b&gt;&lt;/font&gt;" style="rounded=0;whiteSpace=wrap;html=1;shadow=1;" vertex="1" parent="1">
          <mxGeometry x="326.56" y="210" width="201.88" height="50" as="geometry" />
        </mxCell>
        <mxCell id="9yprz6wRxJ_ttCHADu7k-62" style="edgeStyle=elbowEdgeStyle;rounded=0;orthogonalLoop=1;jettySize=auto;elbow=vertical;html=1;exitX=0.5;exitY=1;exitDx=0;exitDy=0;entryX=0.5;entryY=0;entryDx=0;entryDy=0;fontSize=14;strokeWidth=2;" edge="1" parent="1" source="9yprz6wRxJ_ttCHADu7k-57" target="9yprz6wRxJ_ttCHADu7k-59">
          <mxGeometry relative="1" as="geometry" />
        </mxCell>
        <mxCell id="9yprz6wRxJ_ttCHADu7k-63" style="edgeStyle=elbowEdgeStyle;rounded=0;orthogonalLoop=1;jettySize=auto;elbow=vertical;html=1;exitX=0.5;exitY=1;exitDx=0;exitDy=0;fontSize=14;strokeWidth=2;" edge="1" parent="1" source="9yprz6wRxJ_ttCHADu7k-57" target="9yprz6wRxJ_ttCHADu7k-61">
          <mxGeometry relative="1" as="geometry" />
        </mxCell>
        <mxCell id="9yprz6wRxJ_ttCHADu7k-57" value="&lt;span style=&quot;font-size: 14px&quot;&gt;&lt;b&gt;运行软件打开两个窗口&lt;br&gt;一个选择can0另一个选择can1&lt;/b&gt;&lt;/span&gt;" style="rounded=0;whiteSpace=wrap;html=1;shadow=1;" vertex="1" parent="1">
          <mxGeometry x="314.53000000000003" y="290" width="225.94" height="60" as="geometry" />
        </mxCell>
        <mxCell id="9yprz6wRxJ_ttCHADu7k-66" style="edgeStyle=elbowEdgeStyle;rounded=0;orthogonalLoop=1;jettySize=auto;elbow=vertical;html=1;exitX=0.5;exitY=1;exitDx=0;exitDy=0;entryX=0.5;entryY=0;entryDx=0;entryDy=0;fontSize=14;strokeWidth=2;" edge="1" parent="1" source="9yprz6wRxJ_ttCHADu7k-59" target="9yprz6wRxJ_ttCHADu7k-64">
          <mxGeometry relative="1" as="geometry" />
        </mxCell>
        <mxCell id="9yprz6wRxJ_ttCHADu7k-59" value="&lt;span style=&quot;font-size: 14px&quot;&gt;&lt;b&gt;can0发送数据&lt;br&gt;can1接收数据&lt;/b&gt;&lt;/span&gt;" style="rounded=0;whiteSpace=wrap;html=1;shadow=1;" vertex="1" parent="1">
          <mxGeometry x="202.5" y="390" width="170" height="60" as="geometry" />
        </mxCell>
        <mxCell id="9yprz6wRxJ_ttCHADu7k-67" style="edgeStyle=elbowEdgeStyle;rounded=0;orthogonalLoop=1;jettySize=auto;elbow=vertical;html=1;exitX=0.5;exitY=1;exitDx=0;exitDy=0;entryX=0.5;entryY=0;entryDx=0;entryDy=0;fontSize=14;strokeWidth=2;" edge="1" parent="1" source="9yprz6wRxJ_ttCHADu7k-61" target="9yprz6wRxJ_ttCHADu7k-65">
          <mxGeometry relative="1" as="geometry" />
        </mxCell>
        <mxCell id="9yprz6wRxJ_ttCHADu7k-61" value="&lt;span style=&quot;font-size: 14px&quot;&gt;&lt;b&gt;can1发送数据&lt;br&gt;can0接收数据&lt;/b&gt;&lt;/span&gt;" style="rounded=0;whiteSpace=wrap;html=1;shadow=1;" vertex="1" parent="1">
          <mxGeometry x="482.5" y="390" width="170" height="60" as="geometry" />
        </mxCell>
        <mxCell id="9yprz6wRxJ_ttCHADu7k-70" style="edgeStyle=elbowEdgeStyle;rounded=0;orthogonalLoop=1;jettySize=auto;elbow=vertical;html=1;exitX=0.5;exitY=1;exitDx=0;exitDy=0;entryX=0.5;entryY=0;entryDx=0;entryDy=0;fontSize=14;strokeWidth=2;" edge="1" parent="1" source="9yprz6wRxJ_ttCHADu7k-64" target="9yprz6wRxJ_ttCHADu7k-68">
          <mxGeometry relative="1" as="geometry" />
        </mxCell>
        <mxCell id="9yprz6wRxJ_ttCHADu7k-64" value="&lt;span style=&quot;font-size: 14px&quot;&gt;&lt;b&gt;can0窗口选择ID、DATA输入框&lt;br&gt;输入数据，点击send发送&lt;/b&gt;&lt;/span&gt;" style="rounded=0;whiteSpace=wrap;html=1;shadow=1;" vertex="1" parent="1">
          <mxGeometry x="180" y="480" width="215" height="60" as="geometry" />
        </mxCell>
        <mxCell id="9yprz6wRxJ_ttCHADu7k-71" style="edgeStyle=elbowEdgeStyle;rounded=0;orthogonalLoop=1;jettySize=auto;elbow=vertical;html=1;exitX=0.5;exitY=1;exitDx=0;exitDy=0;entryX=0.5;entryY=0;entryDx=0;entryDy=0;fontSize=14;strokeWidth=2;" edge="1" parent="1" source="9yprz6wRxJ_ttCHADu7k-65" target="9yprz6wRxJ_ttCHADu7k-69">
          <mxGeometry relative="1" as="geometry" />
        </mxCell>
        <mxCell id="9yprz6wRxJ_ttCHADu7k-65" value="&lt;span style=&quot;font-size: 14px&quot;&gt;&lt;b&gt;can1窗口选择ID、DATA输入框&lt;br&gt;输入数据，点击send发送&lt;/b&gt;&lt;/span&gt;" style="rounded=0;whiteSpace=wrap;html=1;shadow=1;" vertex="1" parent="1">
          <mxGeometry x="460" y="480" width="215" height="60" as="geometry" />
        </mxCell>
        <mxCell id="9yprz6wRxJ_ttCHADu7k-74" style="edgeStyle=elbowEdgeStyle;rounded=0;orthogonalLoop=1;jettySize=auto;elbow=vertical;html=1;exitX=0.5;exitY=1;exitDx=0;exitDy=0;fontSize=14;strokeWidth=2;entryX=0.5;entryY=0;entryDx=0;entryDy=0;" edge="1" parent="1" source="9yprz6wRxJ_ttCHADu7k-68" target="9yprz6wRxJ_ttCHADu7k-87">
          <mxGeometry relative="1" as="geometry">
            <mxPoint x="427.5" y="670" as="targetPoint" />
          </mxGeometry>
        </mxCell>
        <mxCell id="9yprz6wRxJ_ttCHADu7k-68" value="&lt;span style=&quot;font-size: 14px&quot;&gt;&lt;b&gt;can0数据列表显示数据已发送&lt;br&gt;can1数据列表显示接收到数据&lt;/b&gt;&lt;/span&gt;" style="rounded=0;whiteSpace=wrap;html=1;shadow=1;" vertex="1" parent="1">
          <mxGeometry x="180" y="570" width="215" height="60" as="geometry" />
        </mxCell>
        <mxCell id="9yprz6wRxJ_ttCHADu7k-75" style="edgeStyle=elbowEdgeStyle;rounded=0;orthogonalLoop=1;jettySize=auto;elbow=vertical;html=1;exitX=0.5;exitY=1;exitDx=0;exitDy=0;fontSize=14;strokeWidth=2;entryX=0.5;entryY=0;entryDx=0;entryDy=0;" edge="1" parent="1" source="9yprz6wRxJ_ttCHADu7k-69" target="9yprz6wRxJ_ttCHADu7k-87">
          <mxGeometry relative="1" as="geometry">
            <mxPoint x="427.5" y="660" as="targetPoint" />
          </mxGeometry>
        </mxCell>
        <mxCell id="9yprz6wRxJ_ttCHADu7k-69" value="&lt;span style=&quot;font-size: 14px&quot;&gt;&lt;b&gt;can1数据列表显示数据已发送&lt;br&gt;can0数据列表显示接收到数据&lt;/b&gt;&lt;/span&gt;" style="rounded=0;whiteSpace=wrap;html=1;shadow=1;" vertex="1" parent="1">
          <mxGeometry x="460" y="570" width="215" height="60" as="geometry" />
        </mxCell>
        <mxCell id="9yprz6wRxJ_ttCHADu7k-90" style="edgeStyle=elbowEdgeStyle;rounded=0;orthogonalLoop=1;jettySize=auto;elbow=vertical;html=1;exitX=0.5;exitY=1;exitDx=0;exitDy=0;fontSize=14;strokeWidth=2;" edge="1" parent="1" source="9yprz6wRxJ_ttCHADu7k-76" target="9yprz6wRxJ_ttCHADu7k-79">
          <mxGeometry relative="1" as="geometry" />
        </mxCell>
        <mxCell id="9yprz6wRxJ_ttCHADu7k-91" style="edgeStyle=elbowEdgeStyle;rounded=0;orthogonalLoop=1;jettySize=auto;elbow=vertical;html=1;exitX=0.5;exitY=1;exitDx=0;exitDy=0;fontSize=14;strokeWidth=2;" edge="1" parent="1" source="9yprz6wRxJ_ttCHADu7k-76" target="9yprz6wRxJ_ttCHADu7k-80">
          <mxGeometry relative="1" as="geometry" />
        </mxCell>
        <mxCell id="9yprz6wRxJ_ttCHADu7k-76" value="&lt;span style=&quot;font-size: 14px&quot;&gt;&lt;b&gt;鼠标选中数据列表&lt;/b&gt;&lt;/span&gt;" style="rounded=0;whiteSpace=wrap;html=1;shadow=1;" vertex="1" parent="1">
          <mxGeometry x="957.5" y="230" width="190" height="40" as="geometry" />
        </mxCell>
        <mxCell id="9yprz6wRxJ_ttCHADu7k-98" style="edgeStyle=elbowEdgeStyle;rounded=0;orthogonalLoop=1;jettySize=auto;elbow=vertical;html=1;exitX=0.5;exitY=1;exitDx=0;exitDy=0;entryX=0.5;entryY=0;entryDx=0;entryDy=0;fontSize=14;strokeWidth=2;" edge="1" parent="1" source="9yprz6wRxJ_ttCHADu7k-79" target="9yprz6wRxJ_ttCHADu7k-97">
          <mxGeometry relative="1" as="geometry" />
        </mxCell>
        <mxCell id="9yprz6wRxJ_ttCHADu7k-79" value="&lt;span style=&quot;font-size: 14px&quot;&gt;&lt;b&gt;选择clear按钮清空该&lt;br&gt;窗口的数据列表&lt;/b&gt;&lt;/span&gt;&lt;span style=&quot;color: rgba(0 , 0 , 0 , 0) ; font-family: monospace ; font-size: 0px&quot;&gt;%3CmxGraphModel%3E%3Croot%3E%3CmxCell%20id%3D%220%22%2F%3E%3CmxCell%20id%3D%221%22%20parent%3D%220%22%2F%3E%3CmxCell%20id%3D%222%22%20value%3D%22%26lt%3Bspan%20style%3D%26quot%3Bfont-size%3A%2014px%26quot%3B%26gt%3B%26lt%3Bb%26gt%3B%E9%BC%A0%E6%A0%87%E9%80%89%E6%8B%A9%E6%95%B0%E6%8D%AE%E5%88%97%E8%A1%A8%26lt%3B%2Fb%26gt%3B%26lt%3B%2Fspan%26gt%3B%22%20style%3D%22rounded%3D0%3BwhiteSpace%3Dwrap%3Bhtml%3D1%3Bshadow%3D1%3B%22%20vertex%3D%221%22%20parent%3D%221%22%3E%3CmxGeometry%20x%3D%22510%22%20y%3D%22780%22%20width%3D%22190%22%20height%3D%2260%22%20as%3D%22geometry%22%2F%3E%3C%2FmxCell%3E%3C%2Froot%3E%3C%2FmxGraphModel%3E&lt;/span&gt;&lt;span style=&quot;color: rgba(0 , 0 , 0 , 0) ; font-family: monospace ; font-size: 0px&quot;&gt;%3CmxGraphModel%3E%3Croot%3E%3CmxCell%20id%3D%220%22%2F%3E%3CmxCell%20id%3D%221%22%20parent%3D%220%22%2F%3E%3CmxCell%20id%3D%222%22%20value%3D%22%26lt%3Bspan%20style%3D%26quot%3Bfont-size%3A%2014px%26quot%3B%26gt%3B%26lt%3Bb%26gt%3B%E9%BC%A0%E6%A0%87%E9%80%89%E6%8B%A9%E6%95%B0%E6%8D%AE%E5%88%97%E8%A1%A8%26lt%3B%2Fb%26gt%3B%26lt%3B%2Fspan%26gt%3B%22%20style%3D%22rounded%3D0%3BwhiteSpace%3Dwrap%3Bhtml%3D1%3Bshadow%3D1%3B%22%20vertex%3D%221%22%20parent%3D%221%22%3E%3CmxGeometry%20x%3D%22510%22%20y%3D%22780%22%20width%3D%22190%22%20height%3D%2260%22%20as%3D%22geometry%22%2F%3E%3C%2FmxCell%3E%3C%2Froot%3E%3C%2FmxGraphModel%3E&lt;/span&gt;" style="rounded=0;whiteSpace=wrap;html=1;shadow=1;" vertex="1" parent="1">
          <mxGeometry x="850" y="320" width="170" height="60" as="geometry" />
        </mxCell>
        <mxCell id="9yprz6wRxJ_ttCHADu7k-99" style="edgeStyle=elbowEdgeStyle;rounded=0;orthogonalLoop=1;jettySize=auto;elbow=vertical;html=1;exitX=0.5;exitY=1;exitDx=0;exitDy=0;fontSize=14;strokeWidth=2;entryX=0.5;entryY=0;entryDx=0;entryDy=0;" edge="1" parent="1" source="9yprz6wRxJ_ttCHADu7k-80" target="9yprz6wRxJ_ttCHADu7k-97">
          <mxGeometry relative="1" as="geometry">
            <mxPoint x="1050" y="420" as="targetPoint" />
          </mxGeometry>
        </mxCell>
        <mxCell id="9yprz6wRxJ_ttCHADu7k-80" value="&lt;span style=&quot;font-size: 14px&quot;&gt;&lt;b&gt;选择del按钮删除窗口中&lt;br&gt;选中的一行数据&lt;/b&gt;&lt;/span&gt;" style="rounded=0;whiteSpace=wrap;html=1;shadow=1;" vertex="1" parent="1">
          <mxGeometry x="1090" y="320" width="170" height="60" as="geometry" />
        </mxCell>
        <mxCell id="9yprz6wRxJ_ttCHADu7k-94" style="edgeStyle=elbowEdgeStyle;rounded=0;orthogonalLoop=1;jettySize=auto;elbow=vertical;html=1;exitX=0.5;exitY=1;exitDx=0;exitDy=0;entryX=0.5;entryY=0;entryDx=0;entryDy=0;fontSize=14;strokeWidth=2;" edge="1" parent="1" source="9yprz6wRxJ_ttCHADu7k-87" target="9yprz6wRxJ_ttCHADu7k-93">
          <mxGeometry relative="1" as="geometry" />
        </mxCell>
        <mxCell id="9yprz6wRxJ_ttCHADu7k-87" value="点击off退出窗口" style="rounded=0;shadow=1;fontStyle=1;fontSize=14;" vertex="1" parent="1">
          <mxGeometry x="348.75" y="680" width="157.5" height="40" as="geometry" />
        </mxCell>
        <mxCell id="9yprz6wRxJ_ttCHADu7k-92" style="edgeStyle=elbowEdgeStyle;rounded=0;orthogonalLoop=1;jettySize=auto;elbow=vertical;html=1;exitX=0.5;exitY=1;exitDx=0;exitDy=0;entryX=0.5;entryY=0;entryDx=0;entryDy=0;fontSize=14;strokeWidth=2;" edge="1" parent="1" source="9yprz6wRxJ_ttCHADu7k-88" target="9yprz6wRxJ_ttCHADu7k-76">
          <mxGeometry relative="1" as="geometry" />
        </mxCell>
        <mxCell id="9yprz6wRxJ_ttCHADu7k-88" value="开始" style="rounded=1;shadow=1;fontStyle=1;fontSize=14;" vertex="1" parent="1">
          <mxGeometry x="997.5" y="150" width="110" height="40" as="geometry" />
        </mxCell>
        <mxCell id="9yprz6wRxJ_ttCHADu7k-93" value="结束" style="rounded=1;shadow=1;fontStyle=1;fontSize=14;" vertex="1" parent="1">
          <mxGeometry x="372.5" y="750" width="110" height="40" as="geometry" />
        </mxCell>
        <mxCell id="9yprz6wRxJ_ttCHADu7k-96" value="结束" style="rounded=1;shadow=1;fontStyle=1;fontSize=14;" vertex="1" parent="1">
          <mxGeometry x="997.5" y="500" width="110" height="40" as="geometry" />
        </mxCell>
        <mxCell id="9yprz6wRxJ_ttCHADu7k-100" style="edgeStyle=elbowEdgeStyle;rounded=0;orthogonalLoop=1;jettySize=auto;elbow=vertical;html=1;exitX=0.5;exitY=1;exitDx=0;exitDy=0;fontSize=14;strokeWidth=2;" edge="1" parent="1" source="9yprz6wRxJ_ttCHADu7k-97" target="9yprz6wRxJ_ttCHADu7k-96">
          <mxGeometry relative="1" as="geometry" />
        </mxCell>
        <mxCell id="9yprz6wRxJ_ttCHADu7k-97" value="点击off退出窗口" style="rounded=0;shadow=1;fontStyle=1;fontSize=14;" vertex="1" parent="1">
          <mxGeometry x="973.75" y="430" width="157.5" height="40" as="geometry" />
        </mxCell>
      </root>
    </mxGraphModel>
  </diagram>
</mxfile>
